PathFileType	4	(X/Y/Z)	/Users/itak/Documents/Research/Walk-IL/dataset/trc/00402_00012.trc
DataRate	CameraRate	NumFrames	NumMarkers	Units	OrigDataRate	OrigDataStartFrame	OrigNumFrames
100.000000	100.000000	4	53	mm	100.000000	333	667
Frame#	Time	RPSI			LPSI			L3			STRN			T10			C7			CLAV			RBAK			LBAK			LSHO			LUPA			LAEL			LAOL			LWTS			LWPS			LFRA			LIFD			LHPS			LHTS			RSHO			RUPA			RAEL			RAOL			RWTS			RWPS			RFRA			RIFD			RHTS			RHPS			RBHD			LFHD			RFHD			LBHD			LHIP			RHIP			RASI			LASI			LKNE			LTHI			LANK			LTIP			LTOE			LMT1			LMT5			LHEE			RKNE			RTHI			RANK			RTIP			RTOE			RMT1			RMT5			RHEE			
		X1	Y1	Z1	X2	Y2	Z2	X3	Y3	Z3	X4	Y4	Z4	X5	Y5	Z5	X6	Y6	Z6	X7	Y7	Z7	X8	Y8	Z8	X9	Y9	Z9	X10	Y10	Z10	X11	Y11	Z11	X12	Y12	Z12	X13	Y13	Z13	X14	Y14	Z14	X15	Y15	Z15	X16	Y16	Z16	X17	Y17	Z17	X18	Y18	Z18	X19	Y19	Z19	X20	Y20	Z20	X21	Y21	Z21	X22	Y22	Z22	X23	Y23	Z23	X24	Y24	Z24	X25	Y25	Z25	X26	Y26	Z26	X27	Y27	Z27	X28	Y28	Z28	X29	Y29	Z29	X30	Y30	Z30	X31	Y31	Z31	X32	Y32	Z32	X33	Y33	Z33	X34	Y34	Z34	X35	Y35	Z35	X36	Y36	Z36	X37	Y37	Z37	X38	Y38	Z38	X39	Y39	Z39	X40	Y40	Z40	X41	Y41	Z41	X42	Y42	Z42	X43	Y43	Z43	X44	Y44	Z44	X45	Y45	Z45	X46	Y46	Z46	X47	Y47	Z47	X48	Y48	Z48	X49	Y49	Z49	X50	Y50	Z50	X51	Y51	Z51	X52	Y52	Z52	X53	Y53	Z53	

334	3.33	909.4475708007812	946.822021484375	-493.4012145996094	847.421630859375	931.516845703125	-375.4551696777344	881.189453125	1012.412780761719	-439.2867126464844	680.62548828125	1176.56591796875	-545.4880981445312	896.2694091796875	1116.158813476562	-423.6569519042969	862.3760375976562	1365.324462890625	-423.322265625	727.2404174804688	1293.848876953125	-510.3801574707031	930.433837890625	1221.72998046875	-469.5689392089844	825.91064453125	1323.435424804688	-329.3834533691406	726.3662719726562	1339.013305664062	-324.5905456542969	729.2688598632812	1220.375122070312	-255.9360961914062	727.4202270507812	1024.574462890625	-239.1513671875	796.366455078125	1008.552185058594	-286.0932922363281	680.2606811523438	799.7135009765625	-304.9841613769531	706.3156127929688	795.80859375	-227.81884765625	720.1718139648438	919.3206787109375	-233.740966796875	685.869140625	639.4529418945312	-300.4859008789062	707.8671264648438	708.0221557617188	-238.7690124511719	678.7177734375	723.1558227539062	-289.9949035644531	892.2556762695312	1355.74169921875	-586.8826293945312	935.7406616210938	1294.822509765625	-630.9782104492188	962.911865234375	1037.764282226562	-686.2030639648438	912.2598266601562	1019.842590332031	-604.331298828125	801.6262817382812	890.306640625	-807.9100341796875	868.4471435546875	866.1489868164062	-831.20654296875	943.00634765625	985.33203125	-729.84619140625	750.2714233398438	740.7630004882812	-879.947998046875	771.2190551757812	810.9545288085938	-873.40478515625	837.814697265625	790.9796142578125	-867.2306518554688	855.3268432617188	1564.318725585938	-513.1572265625	680.3892822265625	1554.879272460938	-421.2353515625	723.0411376953125	1576.009887695312	-533.2757568359375	814.1648559570312	1532.298217773438	-360.2607727050781	716.7860107421875	922.9739990234375	-325.5259094238281	899.0642700195312	931.24462890625	-636.2391967773438	755.50439453125	933.437744140625	-657.7306518554688	640.052978515625	929.0174560546875	-423.8609924316406	583.5592041015625	460.8946533203125	-494.7924194335938	615.3848266601562	588.3961791992188	-437.008544921875	644.43359375	32.47043991088867	-569.4515991210938	602.3953857421875	224.3466491699219	-528.2553100585938	471.7872314453125	45.26196670532227	-707.9183349609375	548.8569946289062	30.64042854309082	-704.7811889648438	523.105712890625	37.66698455810547	-608.088134765625	699.7659912109375	31.23558616638184	-606.50634765625	928.5591430664062	448.1930236816406	-630.8087768554688	853.6798706054688	696.4525756835938	-669.623291015625	1200.165161132812	150.0485382080078	-458.4112854003906	988.0733032226562	339.0798645019531	-596.2582397460938	1091.9736328125	22.50811386108398	-466.8349304199219	1103.702392578125	60.08513259887695	-418.6947937011719	1180.452880859375	57.96349716186523	-481.2858581542969	1203.010131835938	195.2442932128906	-382.6311645507812	
335	3.34	899.581787109375	947.7369384765625	-498.3278198242188	837.9457397460938	933.2975463867188	-380.0909118652344	871.5886840820312	1014.186767578125	-444.0907592773438	670.2777099609375	1178.4873046875	-549.1860961914062	886.1148681640625	1117.817138671875	-429.1979675292969	853.1512451171875	1367.115966796875	-428.517333984375	717.2534790039062	1295.86279296875	-514.6300659179688	920.6554565429688	1223.36083984375	-475.0191040039062	817.2947998046875	1325.3623046875	-334.3023681640625	717.877197265625	1341.283447265625	-328.897216796875	720.4484252929688	1222.575805664062	-260.3477783203125	717.1822509765625	1026.72705078125	-243.7358856201172	785.7893676757812	1010.255065917969	-291.044189453125	664.1748657226562	803.7821655273438	-310.3214111328125	691.955810546875	798.0621948242188	-233.8190765380859	708.1075439453125	921.5864868164062	-238.9674835205078	668.4080810546875	642.1439208984375	-307.5240478515625	690.7755737304688	710.3409423828125	-246.0673217773438	661.57177734375	725.8744506835938	-297.0933837890625	881.85498046875	1357.396240234375	-592.2530517578125	924.94482421875	1296.431030273438	-636.556396484375	951.8280029296875	1039.16796875	-690.5086669921875	901.6486206054688	1021.851501464844	-608.3900146484375	792.6011962890625	886.138916015625	-808.9494018554688	859.8257446289062	862.7232055664062	-831.9268188476562	932.4808349609375	985.6647338867188	-733.294921875	744.284912109375	733.1123046875	-875.7988891601562	763.5557250976562	803.9052734375	-871.5804443359375	830.7088012695312	785.7630004882812	-865.2876586914062	845.448974609375	1566.3701171875	-517.5421142578125	671.338134765625	1556.479370117188	-424.0964660644531	713.0234985351562	1578.273803710938	-536.4135131835938	805.6712036132812	1533.450073242188	-364.4639282226562	707.7833251953125	925.1953735351562	-329.2087707519531	887.8428955078125	932.17822265625	-641.9413452148438	744.4392700195312	935.0354614257812	-661.5260009765625	630.4131469726562	930.927978515625	-427.0047607421875	578.487060546875	460.9632568359375	-496.5574645996094	608.7052612304688	589.3074951171875	-439.29052734375	644.4219970703125	32.53680419921875	-569.5215454101562	600.1878662109375	224.4033508300781	-529.056640625	471.5281982421875	44.52450561523438	-707.7601318359375	548.9126586914062	30.52844429016113	-704.8828735351562	523.1242065429688	37.76011657714844	-608.2427978515625	699.7677001953125	31.17695808410645	-606.41796875	909.386962890625	447.9027709960938	-643.2319946289062	839.5531616210938	697.4657592773438	-676.5243530273438	1188.024169921875	157.1793212890625	-472.3470458984375	969.9080810546875	339.5341796875	-609.031494140625	1083.554931640625	22.57707023620605	-474.505126953125	1095.107177734375	64.43045806884766	-427.6502380371094	1170.617065429688	60.77846908569336	-491.2212219238281	1190.939575195312	204.1910552978516	-397.571533203125	
336	3.35	890.0676879882812	948.4696044921875	-502.9041748046875	828.7127685546875	934.9586791992188	-384.4141845703125	862.2366943359375	1015.920532226562	-448.5422973632812	660.1434936523438	1180.127197265625	-552.9044189453125	876.06201171875	1119.434936523438	-434.5833435058594	843.9015502929688	1368.886352539062	-433.6725463867188	707.3417358398438	1297.646606445312	-518.9178466796875	910.9603881835938	1224.953979492188	-480.3157958984375	808.5878295898438	1327.276245117188	-339.1694946289062	709.2651977539062	1343.441772460938	-333.2803344726562	711.4920043945312	1224.677124023438	-264.7414245605469	706.763916015625	1028.790893554688	-248.2395629882812	775.208251953125	1011.878601074219	-295.6749267578125	647.9649658203125	807.9996337890625	-315.5083312988281	677.1875	800.3731079101562	-239.6964263916016	695.8197631835938	923.8273315429688	-244.0562744140625	650.4528198242188	645.0106811523438	-314.3452758789062	673.1888427734375	712.8353271484375	-253.1488342285156	643.9310302734375	728.7689819335938	-303.9750061035156	871.5328979492188	1358.918701171875	-597.585693359375	914.260009765625	1297.855346679688	-642.0633544921875	940.7902221679688	1040.3935546875	-694.9566650390625	891.2752685546875	1023.603881835938	-612.5109252929688	783.8134155273438	881.850830078125	-809.8418579101562	851.408935546875	859.2532348632812	-832.5956420898438	922.0758056640625	985.8947143554688	-736.8743896484375	738.7639770507812	725.4281005859375	-871.1821899414062	756.2144165039062	796.7445678710938	-869.4034423828125	823.9489135742188	780.5720825195312	-863.1644897460938	835.5519409179688	1568.353515625	-521.9198608398438	662.3056030273438	1557.981079101562	-426.8917541503906	702.9826049804688	1580.468505859375	-539.490478515625	797.1694946289062	1534.486694335938	-368.6731262207031	698.8138427734375	927.2210693359375	-332.8037719726562	877.0203247070312	932.9810180664062	-647.564697265625	733.8353271484375	936.4241943359375	-665.2871704101562	621.1140747070312	932.5428466796875	-430.1637268066406	573.9788818359375	460.8538208007812	-497.8811950683594	602.6414184570312	589.9512329101562	-441.2334899902344	644.462646484375	32.53632736206055	-569.5968017578125	598.4178466796875	224.3674011230469	-529.6320190429688	471.3743591308594	44.07232284545898	-707.5828857421875	548.9930419921875	30.51527786254883	-704.9152221679688	523.18115234375	37.82089996337891	-608.3243408203125	699.8434448242188	31.10966110229492	-606.3551025390625	889.618408203125	447.6720886230469	-655.5423583984375	825.5978393554688	698.4866333007812	-683.2830810546875	1174.450439453125	163.79833984375	-486.7469482421875	950.93017578125	340.0137939453125	-621.689453125	1072.615478515625	23.3463020324707	-484.326416015625	1084.2919921875	69.11415100097656	-438.0978393554688	1158.789184570312	63.92171859741211	-502.5957641601562	1177.94384765625	212.0365753173828	-412.5615234375	
337	3.36	880.8754272460938	949.0625	-507.1849670410156	819.7682495117188	936.5239868164062	-388.4710083007812	853.1207275390625	1017.641296386719	-452.6573791503906	650.2132568359375	1181.52099609375	-556.6659545898438	866.1227416992188	1121.025512695312	-439.814453125	834.642578125	1370.641479492188	-438.7781677246094	697.5192260742188	1299.214477539062	-523.2393798828125	901.3593139648438	1226.526489257812	-485.4573059082031	799.8068237304688	1329.188232421875	-343.9736938476562	700.53564453125	1345.484985351562	-337.7308654785156	702.4027709960938	1226.687255859375	-269.1046142578125	696.1549072265625	1030.76513671875	-252.6704559326172	764.6253662109375	1013.422729492188	-299.9651794433594	631.6983032226562	812.3651123046875	-320.5751953125	662.0296020507812	802.7732543945312	-245.4468994140625	683.3140258789062	926.0578002929688	-249.0092315673828	632.0348510742188	648.0977783203125	-320.9079895019531	655.1384887695312	715.5499877929688	-259.9724426269531	625.8270874023438	731.8837890625	-310.5983276367188	861.302734375	1360.318603515625	-602.8717041015625	903.700439453125	1299.109497070312	-647.48583984375	929.80029296875	1041.449951171875	-699.5142822265625	881.1473388671875	1025.10400390625	-616.6679077148438	775.2908325195312	877.4927978515625	-810.5804443359375	843.2145385742188	855.7742309570312	-833.1976928710938	911.7872924804688	986.0281982421875	-740.5474853515625	733.7183837890625	717.8427124023438	-866.1853637695312	749.2235107421875	789.5823364257812	-866.9193725585938	817.5335083007812	775.4606323242188	-860.9036254882812	825.6342163085938	1570.263671875	-526.2933349609375	653.2967529296875	1559.392944335938	-429.638916015625	692.9244384765625	1582.583740234375	-542.5236206054688	788.6591796875	1535.435424804688	-372.8876342773438	689.9212646484375	929.0816040039062	-336.3124694824219	866.5430908203125	933.6751098632812	-653.13037109375	723.6248168945312	937.6456909179688	-669.0221557617188	612.1317138671875	933.9114990234375	-433.3231201171875	569.9725952148438	460.5928039550781	-498.7899169921875	597.1201171875	590.3966064453125	-442.8680725097656	644.5523681640625	32.47578430175781	-569.6744995117188	596.9898681640625	224.2529602050781	-530.0035400390625	471.3065490722656	43.83792877197266	-707.4152221679688	549.094970703125	30.56669044494629	-704.8973999023438	523.263916015625	37.83705139160156	-608.3474731445312	699.97607421875	31.0509090423584	-606.3101806640625	869.3038330078125	447.6232299804688	-667.66064453125	811.7349243164062	699.5702514648438	-689.90576171875	1159.397338867188	169.6580810546875	-501.4134521484375	931.2208251953125	340.609375	-634.1570434570312	1059.2001953125	24.97142791748047	-496.2227478027344	1071.1767578125	73.81156158447266	-450.0190734863281	1144.919921875	67.58195495605469	-515.463134765625	1163.937255859375	218.5789794921875	-427.4265441894531	
